# xmcd
#
# Track frame offsets: 
#        150
#        18093
#        38349
#        62410
#        85966
#        104760
#        122667
#        143018
#        157333
#        172934
#
# Disc length: 2536 seconds
#
# Revision: 0
# Processed by: cddbd v1.5.2PL0 Copyright (c) Steve Scherf et al.
# Submitted via: ExactAudioCopy v1.0b3
#
DISCID=7709e60a
DTITLE=Katy Boyd - Paper Hearts
DYEAR=2011
DGENRE=Americana
TTITLE0=Jigs and Reels and Ferris Wheels
TTITLE1=Time Machine
TTITLE2=Mama
TTITLE3=Mary Katherine Magdalena
TTITLE4=Happy Single Mothers Day
TTITLE5=Can't Find My Way Home
TTITLE6=Colors
TTITLE7=I'm Not Depressed
TTITLE8=Borderline
TTITLE9=Circus Folk
EXTD=
EXTT0=
EXTT1=
EXTT2=
EXTT3=
EXTT4=
EXTT5=
EXTT6=
EXTT7=
EXTT8=
EXTT9=
PLAYORDER=
